<svg version="1.1" id="Layer_1" xmlns="http://www.w3.org/2000/svg" xmlns:xlink="http://www.w3.org/1999/xlink" x="0px" y="0px"
	 width="100%" viewBox="0 0 800 800" enable-background="new 0 0 800 800" xml:space="preserve">
<path fill="#68A6A9" opacity="1.000000" stroke="none" 
	d="
M1.000006,761.000000 
	C1.000000,596.975098 1.000000,432.950195 1.344154,268.436401 
	C3.211077,266.690979 4.849020,265.549774 6.239730,264.161011 
	C38.989128,231.457397 71.709030,198.724258 104.449104,166.011307 
	C105.853355,164.608215 107.398689,163.346329 108.924896,162.484985 
	C108.979385,257.643616 108.986046,352.335968 109.002357,447.028290 
	C109.002762,449.355011 109.110435,451.681702 109.108162,454.473145 
	C109.041962,509.945831 109.035690,564.953796 109.017654,620.431335 
	C109.003227,623.564758 108.982864,626.228699 109.001236,628.892456 
	C109.056152,636.853027 108.268982,635.992065 116.348396,635.992920 
	C228.397491,636.004578 340.446564,635.998474 452.495667,635.990295 
	C454.658783,635.990173 456.821869,635.912842 459.453278,635.918579 
	C536.341858,635.974182 612.762207,635.979553 689.182495,636.005859 
	C691.502441,636.006653 693.822266,636.225342 696.066589,636.664246 
	C694.569702,638.598083 693.231079,640.292725 691.714966,641.809998 
	C644.198608,689.361938 596.662842,736.894592 549.143616,784.443665 
	C547.741699,785.846436 546.485107,787.394409 544.864746,788.916138 
	C544.371216,788.976562 544.173584,788.995544 543.508911,789.006836 
	C376.111877,789.003235 209.181839,788.938354 42.252083,789.116577 
	C25.204390,789.134766 8.452008,780.834412 2.765459,762.445801 
	C2.578076,761.839783 1.606196,761.476440 1.000006,761.000000 
z"/>
<path fill="#88D3D7" opacity="1.000000" stroke="none" 
	d="
M108.878296,162.018661 
	C107.398689,163.346329 105.853355,164.608215 104.449104,166.011307 
	C71.709030,198.724258 38.989128,231.457397 6.239730,264.161011 
	C4.849020,265.549774 3.211077,266.690979 1.344154,267.973755 
	C1.000000,194.312439 1.000000,120.624878 1.252603,46.190254 
	C4.464860,25.239380 21.236145,12.837975 41.148636,12.929950 
	C86.767120,13.140661 132.387360,12.973532 178.474960,12.971869 
	C192.292099,13.002906 205.641159,13.021895 219.002319,13.406630 
	C219.737885,15.012633 220.247421,16.461149 221.219360,17.459505 
	C227.764542,24.182671 234.392349,30.825809 241.023636,37.464638 
	C247.677231,44.125774 254.371857,50.745907 261.037659,57.394878 
	C267.563110,63.903870 274.070221,70.431229 280.593964,76.941940 
	C287.491547,83.825752 294.385132,90.713646 301.306702,97.573311 
	C307.506744,103.717896 313.790436,109.778694 319.949615,115.963676 
	C326.938293,122.981651 333.801544,130.124374 340.771362,137.161362 
	C347.373657,143.827271 354.044678,150.425064 360.682831,157.055450 
	C367.461273,163.825912 374.236389,170.599670 381.013031,177.371887 
	C387.532349,183.886978 394.048828,190.404922 400.572083,196.916046 
	C407.469330,203.800430 414.377777,210.673569 421.272705,217.560303 
	C427.677826,223.957840 434.049347,230.389145 440.476074,236.764862 
	C447.976532,244.205750 455.520874,251.602417 462.885742,259.311096 
	C441.858765,280.524841 420.982056,301.435760 400.134583,322.375732 
	C396.274902,326.252563 392.533020,330.246643 388.464417,334.001831 
	C383.004547,328.638763 377.826202,323.451172 372.627472,318.284149 
	C362.396271,308.115356 351.325073,308.127930 341.131256,318.322601 
	C284.825928,374.632751 228.522552,430.944824 172.228653,487.266357 
	C171.058578,488.437042 170.011292,489.730469 168.585541,490.968811 
	C167.835953,490.958923 167.407562,490.946808 166.928619,490.472229 
	C166.864548,469.348511 166.837158,448.687256 166.839951,428.025970 
	C166.851639,341.381470 166.877136,254.736984 166.881897,168.092484 
	C166.882339,160.088089 167.531631,160.973099 159.528900,160.955826 
	C144.366150,160.923096 129.203110,160.914001 114.040733,160.996140 
	C112.318130,161.005463 110.599030,161.662140 108.878296,162.018661 
z"/>
<path fill="#90D7DB" opacity="1.000000" stroke="none" 
	d="
M463.046143,259.018280 
	C455.520874,251.602417 447.976532,244.205750 440.476074,236.764862 
	C434.049347,230.389145 427.677826,223.957840 421.272705,217.560303 
	C414.377777,210.673569 407.469330,203.800430 400.572083,196.916046 
	C394.048828,190.404922 387.532349,183.886978 381.013031,177.371887 
	C374.236389,170.599670 367.461273,163.825912 360.682831,157.055450 
	C354.044678,150.425064 347.373657,143.827271 340.771362,137.161362 
	C333.801544,130.124374 326.938293,122.981651 319.949615,115.963676 
	C313.790436,109.778694 307.506744,103.717896 301.306702,97.573311 
	C294.385132,90.713646 287.491547,83.825752 280.593964,76.941940 
	C274.070221,70.431229 267.563110,63.903870 261.037659,57.394878 
	C254.371857,50.745907 247.677231,44.125774 241.023636,37.464638 
	C234.392349,30.825809 227.764542,24.182671 221.219360,17.459505 
	C220.247421,16.461149 219.737885,15.012633 219.471832,13.390001 
	C269.954926,12.990796 319.980652,12.973961 370.474487,12.968213 
	C411.624146,12.999927 452.305695,13.020554 492.999847,13.406462 
	C494.088379,15.365986 494.963837,17.153292 496.278137,18.517931 
	C500.072144,22.457142 504.068115,26.200890 507.939392,30.066799 
	C517.560669,39.674633 527.156555,49.307926 536.763123,58.930462 
	C545.901123,68.083687 555.048462,77.227562 564.175720,86.391449 
	C573.422546,95.675407 582.637756,104.990875 591.888855,114.270477 
	C601.485840,123.896912 611.098022,133.508194 620.724365,143.105240 
	C630.003906,152.356476 639.318176,161.572861 648.602295,170.819641 
	C657.766235,179.946838 666.930664,189.073669 676.059509,198.235931 
	C685.307495,207.517838 694.471008,216.884201 703.747437,226.137482 
	C713.022095,235.388901 722.444336,244.492493 731.702881,253.759796 
	C740.961853,263.027557 750.058838,272.456909 759.297974,281.744720 
	C771.808228,294.321045 784.368408,306.847992 796.966370,319.336456 
	C798.088440,320.448761 799.645142,321.122528 801.000000,322.000000 
	C801.000000,411.020905 801.000000,500.041779 800.658447,589.482056 
	C799.653625,589.438904 798.896973,589.067932 798.341431,588.500122 
	C791.300537,581.302124 784.328064,574.036804 777.257690,566.867981 
	C770.668030,560.186523 763.979370,553.602600 757.339355,546.970642 
	C750.559021,540.198608 743.785889,533.419373 737.007629,526.645264 
	C730.486816,520.128296 723.965759,513.611633 717.440796,507.098816 
	C710.541687,500.212646 703.655029,493.313904 696.731201,486.452698 
	C690.529175,480.306793 684.232544,474.255554 678.071228,468.069427 
	C671.080444,461.050507 664.251038,453.870544 657.244507,446.867615 
	C650.951477,440.577820 644.478210,434.468719 638.149170,428.214325 
	C631.706726,421.847870 625.343323,415.401489 619.107056,408.697479 
	C629.849915,397.610138 640.431152,386.815369 651.259399,375.989807 
	C651.506409,375.959045 652.003967,375.941101 652.297302,376.223053 
	C665.850220,378.607300 676.049377,372.002106 677.613281,359.641449 
	C678.287720,354.311218 677.516968,348.798157 677.401489,342.937012 
	C677.555176,341.021179 677.843750,339.536560 677.845398,338.051636 
	C677.890503,298.439484 677.981873,258.827148 677.886353,219.215240 
	C677.852051,204.996063 669.737061,197.122147 655.328918,197.098541 
	C615.716858,197.033630 576.104553,197.084717 536.492371,197.098221 
	C528.763794,197.100861 522.162048,199.556030 517.135498,206.095917 
	C516.563232,206.484268 516.281006,206.768234 516.001587,207.020981 
	C516.004333,206.989746 516.064819,207.006332 515.759521,207.146530 
	C510.371948,212.290909 505.283447,217.288910 500.208405,222.300522 
	C487.817657,234.536392 475.433167,246.778610 463.046143,259.018280 
z"/>
<path fill="#89D3D8" opacity="1.000000" stroke="none" 
	d="
M618.945312,408.990051 
	C625.343323,415.401489 631.706726,421.847870 638.149170,428.214325 
	C644.478210,434.468719 650.951477,440.577820 657.244507,446.867615 
	C664.251038,453.870544 671.080444,461.050507 678.071228,468.069427 
	C684.232544,474.255554 690.529175,480.306793 696.731201,486.452698 
	C703.655029,493.313904 710.541687,500.212646 717.440796,507.098816 
	C723.965759,513.611633 730.486816,520.128296 737.007629,526.645264 
	C743.785889,533.419373 750.559021,540.198608 757.339355,546.970642 
	C763.979370,553.602600 770.668030,560.186523 777.257690,566.867981 
	C784.328064,574.036804 791.300537,581.302124 798.341431,588.500122 
	C798.896973,589.067932 799.653625,589.438904 800.658447,589.950684 
	C801.000000,646.687561 801.000000,703.375122 800.642456,760.569275 
	C800.029907,761.281311 799.621216,761.439697 799.541809,761.698914 
	C793.744324,780.631531 777.185425,789.325623 759.040222,789.127869 
	C720.065918,788.703003 681.083862,789.008301 642.104980,788.987427 
	C609.790222,788.970093 577.475525,788.913757 545.160767,788.874695 
	C546.485107,787.394409 547.741699,785.846436 549.143616,784.443665 
	C596.662842,736.894592 644.198608,689.361938 691.714966,641.809998 
	C693.231079,640.292725 694.569702,638.598083 696.417847,636.581909 
	C697.547729,636.018982 698.250671,635.860291 699.417969,635.784912 
	C704.434143,635.868347 708.985962,635.868347 714.002747,635.868347 
	C714.002747,630.131104 714.002747,625.053772 714.005798,619.509155 
	C714.025513,602.208984 714.045837,585.376038 714.056885,568.543030 
	C714.061096,562.109192 714.051453,562.102844 707.490906,562.103271 
	C639.491943,562.107971 571.492920,562.122437 503.493958,562.114380 
	C490.996216,562.112915 478.498505,562.022949 466.150269,561.678833 
	C478.876190,548.745544 491.470215,536.124512 504.023132,523.462830 
	C513.050964,514.356750 522.023987,505.196411 531.315002,495.901672 
	C559.245056,468.152863 586.878357,440.559418 614.527344,412.981689 
	C615.930908,411.581848 617.469543,410.317505 618.945312,408.990051 
z"/>
<path fill="#97DCE0" opacity="1.000000" stroke="none" 
	d="
M801.000000,321.531342 
	C799.645142,321.122528 798.088440,320.448761 796.966370,319.336456 
	C784.368408,306.847992 771.808228,294.321045 759.297974,281.744720 
	C750.058838,272.456909 740.961853,263.027557 731.702881,253.759796 
	C722.444336,244.492493 713.022095,235.388901 703.747437,226.137482 
	C694.471008,216.884201 685.307495,207.517838 676.059509,198.235931 
	C666.930664,189.073669 657.766235,179.946838 648.602295,170.819641 
	C639.318176,161.572861 630.003906,152.356476 620.724365,143.105240 
	C611.098022,133.508194 601.485840,123.896912 591.888855,114.270477 
	C582.637756,104.990875 573.422546,95.675407 564.175720,86.391449 
	C555.048462,77.227562 545.901123,68.083687 536.763123,58.930462 
	C527.156555,49.307926 517.560669,39.674633 507.939392,30.066799 
	C504.068115,26.200890 500.072144,22.457142 496.278137,18.517931 
	C494.963837,17.153292 494.088379,15.365986 493.468628,13.390810 
	C539.286072,12.997884 584.647278,12.985893 630.476318,12.982306 
	C645.626831,13.005731 660.309570,13.020752 674.996826,13.415762 
	C675.512146,14.934161 675.755066,16.335854 676.575073,17.170652 
	C685.818542,26.580700 695.139832,35.914417 704.461609,45.247272 
	C715.170044,55.968334 725.899963,66.667953 736.620544,77.376877 
	C747.341125,88.085815 758.065613,98.790810 768.781006,109.504982 
	C776.729858,117.452866 784.722351,125.358337 792.580627,133.394913 
	C795.552856,136.434540 798.203003,139.789032 801.000000,143.000000 
	C801.000000,202.354233 801.000000,261.708466 801.000000,321.531342 
z"/>
<path fill="#9DE0E4" opacity="1.000000" stroke="none" 
	d="
M801.000000,142.531342 
	C798.203003,139.789032 795.552856,136.434540 792.580627,133.394913 
	C784.722351,125.358337 776.729858,117.452866 768.781006,109.504982 
	C758.065613,98.790810 747.341125,88.085815 736.620544,77.376877 
	C725.899963,66.667953 715.170044,55.968334 704.461609,45.247272 
	C695.139832,35.914417 685.818542,26.580700 676.575073,17.170652 
	C675.755066,16.335854 675.512146,14.934161 675.466187,13.400895 
	C704.762329,13.006455 733.594055,12.915586 762.424622,13.055242 
	C772.961548,13.106283 782.101562,16.787815 789.877747,24.224106 
	C796.220154,30.289267 798.835205,37.958050 801.000000,46.000000 
	C801.000000,78.020897 801.000000,110.041786 801.000000,142.531342 
z"/>
<path fill="#4F787A" opacity="1.000000" stroke="none" 
	d="
M1.000006,761.464661 
	C1.606196,761.476440 2.578076,761.839783 2.765459,762.445801 
	C8.452008,780.834412 25.204390,789.134766 42.252083,789.116577 
	C209.181839,788.938354 376.111877,789.003235 543.367920,789.305420 
	C540.462646,793.407837 537.231323,797.203918 534.000000,801.000000 
	C364.979095,801.000000 195.958206,801.000000 26.589104,800.640076 
	C25.908978,799.924438 25.643675,799.394470 25.235426,799.238525 
	C13.963536,794.930542 6.518866,786.989441 2.592221,775.628784 
	C2.470866,775.277649 1.548792,775.203308 1.000005,775.000000 
	C1.000000,770.643127 1.000000,766.286194 1.000006,761.464661 
z"/>
<path fill="#639497" opacity="1.000000" stroke="none" 
	d="
M534.468628,801.000000 
	C537.231323,797.203918 540.462646,793.407837 543.834961,789.313232 
	C544.173584,788.995544 544.371216,788.976562 544.864746,788.916138 
	C577.475525,788.913757 609.790222,788.970093 642.104980,788.987427 
	C681.083862,789.008301 720.065918,788.703003 759.040222,789.127869 
	C777.185425,789.325623 793.744324,780.631531 799.541809,761.698914 
	C799.621216,761.439697 800.029907,761.281311 800.642456,761.037964 
	C801.000000,765.356873 801.000000,769.713806 800.644043,774.361145 
	C800.029236,774.857605 799.626648,775.012329 799.532043,775.277039 
	C795.362061,786.946655 787.809692,795.232788 775.843872,799.202332 
	C775.411377,799.345764 775.274597,800.380554 775.000000,801.000000 
	C694.979126,801.000000 614.958191,801.000000 534.468628,801.000000 
z"/>
<path fill="#BAE4E7" opacity="1.000000" stroke="none" 
	d="
M630.008545,12.973893 
	C584.647278,12.985893 539.286072,12.997884 493.456055,13.025528 
	C452.305695,13.020554 411.624146,12.999927 370.470154,12.597888 
	C369.134857,10.766478 368.299774,9.299071 367.402863,7.870440 
	C365.956635,5.566851 364.469727,3.288818 363.000000,0.999996 
	C449.354218,1.000000 535.708435,1.000000 622.576416,1.350971 
	C624.209473,3.451514 625.356079,5.184395 626.440979,6.955088 
	C627.659241,8.943537 628.821777,10.966137 630.008545,12.973893 
z"/>
<path fill="#B6E2E4" opacity="1.000000" stroke="none" 
	d="
M362.531342,0.999996 
	C364.469727,3.288818 365.956635,5.566851 367.402863,7.870440 
	C368.299774,9.299071 369.134857,10.766478 370.002014,12.586802 
	C319.980652,12.973961 269.954926,12.990796 219.459717,13.024259 
	C205.641159,13.021895 192.292099,13.002906 178.517639,12.631294 
	C177.615341,10.801342 177.284500,9.255266 176.628784,7.862098 
	C175.528046,5.523496 174.220520,3.282224 173.000000,0.999999 
	C236.020889,1.000000 299.041779,1.000000 362.531342,0.999996 
z"/>
<path fill="#C2EBED" opacity="1.000000" stroke="none" 
	d="
M630.476318,12.982296 
	C628.821777,10.966137 627.659241,8.943537 626.440979,6.955088 
	C625.356079,5.184395 624.209473,3.451514 623.045044,1.350971 
	C673.354248,1.000000 723.708435,1.000000 774.216064,1.301288 
	C774.685730,1.984041 774.930237,2.584845 775.328674,2.715088 
	C787.148682,6.578895 795.136414,14.286072 799.112976,26.130711 
	C799.264099,26.580900 800.349792,26.717342 801.000000,26.999992 
	C801.000000,33.021152 801.000000,39.042305 801.000000,45.531731 
	C798.835205,37.958050 796.220154,30.289267 789.877747,24.224106 
	C782.101562,16.787815 772.961548,13.106283 762.424622,13.055242 
	C733.594055,12.915586 704.762329,13.006455 675.461731,13.020907 
	C660.309570,13.020752 645.626831,13.005731 630.476318,12.982296 
z"/>
<path fill="#B3DFE2" opacity="1.000000" stroke="none" 
	d="
M172.531342,0.999999 
	C174.220520,3.282224 175.528046,5.523496 176.628784,7.862098 
	C177.284500,9.255266 177.615341,10.801342 178.049561,12.619247 
	C132.387360,12.973532 86.767120,13.140661 41.148636,12.929950 
	C21.236145,12.837975 4.464860,25.239380 1.252603,45.721596 
	C1.000000,39.978848 1.000000,33.957695 1.295727,27.789482 
	C1.858781,27.444199 2.277456,27.300665 2.371685,27.039892 
	C6.661595,15.167820 14.274689,6.646458 26.595566,2.773777 
	C26.887390,2.682051 26.872063,1.613130 27.000000,1.000000 
	C75.354225,1.000000 123.708458,1.000000 172.531342,0.999999 
z"/>
<path fill="#000000" opacity="1.000000" stroke="none" 
	d="
M26.531334,1.000000 
	C26.872063,1.613130 26.887390,2.682051 26.595566,2.773777 
	C14.274689,6.646458 6.661595,15.167820 2.371685,27.039892 
	C2.277456,27.300665 1.858781,27.444199 1.295727,27.321211 
	C1.000000,18.406929 1.000000,9.813859 1.000000,1.000000 
	C9.352930,1.000000 17.707798,1.000000 26.531334,1.000000 
z"/>
<path fill="#000000" opacity="1.000000" stroke="none" 
	d="
M775.468689,801.000000 
	C775.274597,800.380554 775.411377,799.345764 775.843872,799.202332 
	C787.809692,795.232788 795.362061,786.946655 799.532043,775.277039 
	C799.626648,775.012329 800.029236,774.857605 800.644043,774.825806 
	C801.000000,783.593079 801.000000,792.186096 801.000000,801.000000 
	C792.647095,801.000000 784.292236,801.000000 775.468689,801.000000 
z"/>
<path fill="#000000" opacity="1.000000" stroke="none" 
	d="
M801.000000,26.531326 
	C800.349792,26.717342 799.264099,26.580900 799.112976,26.130711 
	C795.136414,14.286072 787.148682,6.578895 775.328674,2.715088 
	C774.930237,2.584845 774.685730,1.984041 774.684753,1.301288 
	C783.593079,1.000000 792.186157,1.000000 801.000000,1.000000 
	C801.000000,9.352930 801.000000,17.707798 801.000000,26.531326 
z"/>
<path fill="#000000" opacity="1.000000" stroke="none" 
	d="
M1.000005,775.468689 
	C1.548792,775.203308 2.470866,775.277649 2.592221,775.628784 
	C6.518866,786.989441 13.963536,794.930542 25.235426,799.238525 
	C25.643675,799.394470 25.908978,799.924438 26.120445,800.640076 
	C17.738842,801.000000 9.477683,801.000000 1.000000,801.000000 
	C1.000000,792.647034 1.000000,784.292236 1.000005,775.468689 
z"/>
<path fill="#F3F3F3" opacity="1.000000" stroke="none" 
	d="
M108.924904,162.484985 
	C110.599030,161.662140 112.318130,161.005463 114.040733,160.996140 
	C129.203110,160.914001 144.366150,160.923096 159.528900,160.955826 
	C167.531631,160.973099 166.882339,160.088089 166.881897,168.092484 
	C166.877136,254.736984 166.851639,341.381470 166.839951,428.025970 
	C166.837158,448.687256 166.864548,469.348511 166.868759,490.943634 
	C166.746429,497.253784 166.633408,502.630066 166.182724,507.991089 
	C164.977158,507.546387 163.907181,507.312622 163.272583,506.657257 
	C156.882584,500.058472 150.637695,493.318207 144.206421,486.760529 
	C136.281616,478.679932 128.326141,470.622833 120.162842,462.785858 
	C116.793991,459.551666 112.850319,456.916199 109.168091,454.008423 
	C109.110435,451.681702 109.002762,449.355011 109.002357,447.028290 
	C108.986046,352.335968 108.979385,257.643616 108.924904,162.484985 
z"/>
<path fill="#F6F6F6" opacity="1.000000" stroke="none" 
	d="
M109.108154,454.473145 
	C112.850319,456.916199 116.793991,459.551666 120.162842,462.785858 
	C128.326141,470.622833 136.281616,478.679932 144.206421,486.760529 
	C150.637695,493.318207 156.882584,500.058472 163.272583,506.657257 
	C163.907181,507.312622 164.977158,507.546387 166.275238,508.451355 
	C166.705429,526.458435 166.705429,543.989990 166.705429,562.391724 
	C185.271484,562.391724 203.130966,562.391724 221.060883,562.703857 
	C224.487900,566.611389 227.814529,570.235291 231.209366,573.794250 
	C234.726044,577.480835 238.317276,581.096252 241.860489,584.757690 
	C245.629410,588.652344 249.292618,592.653809 253.158691,596.449036 
	C259.598907,602.771179 266.237396,608.893311 272.600006,615.290894 
	C273.588104,616.284424 273.555573,618.293030 273.531128,619.900452 
	C218.387985,619.966370 163.708694,619.964111 109.029419,619.961792 
	C109.035690,564.953796 109.041962,509.945831 109.108154,454.473145 
z"/>
<path fill="#406566" opacity="1.000000" stroke="none" 
	d="
M109.017654,620.431335 
	C163.708694,619.964111 218.387985,619.966370 273.995239,619.972839 
	C313.994507,619.986755 353.065826,619.981628 392.137115,620.012939 
	C410.089996,620.027344 428.042847,620.113281 446.054138,620.501709 
	C448.246979,623.245178 450.414734,625.625244 452.506653,628.070190 
	C454.703918,630.638306 456.828583,633.268494 458.984985,635.871521 
	C456.821869,635.912842 454.658783,635.990173 452.495667,635.990295 
	C340.446564,635.998474 228.397491,636.004578 116.348396,635.992920 
	C108.268982,635.992065 109.056152,636.853027 109.001236,628.892456 
	C108.982864,626.228699 109.003227,623.564758 109.017654,620.431335 
z"/>
<path fill="#456869" opacity="1.000000" stroke="none" 
	d="
M459.453278,635.918579 
	C456.828583,633.268494 454.703918,630.638306 452.506653,628.070190 
	C450.414734,625.625244 448.246979,623.245178 446.518188,620.429565 
	C534.605957,620.018127 622.288147,620.013123 709.970276,620.016602 
	C710.964539,620.016663 711.958862,620.126221 712.783203,620.456787 
	C708.060059,625.719727 703.506897,630.710632 698.953674,635.701538 
	C698.250671,635.860291 697.547729,636.018982 696.493408,636.260010 
	C693.822266,636.225342 691.502441,636.006653 689.182495,636.005859 
	C612.762207,635.979553 536.341858,635.974182 459.453278,635.918579 
z"/>
<path fill="#F3F3F3" opacity="1.000000" stroke="none" 
	d="
M517.425537,205.991547 
	C522.162048,199.556030 528.763794,197.100861 536.492371,197.098221 
	C576.104553,197.084717 615.716858,197.033630 655.328918,197.098541 
	C669.737061,197.122147 677.852051,204.996063 677.886353,219.215240 
	C677.981873,258.827148 677.890503,298.439484 677.845398,338.051636 
	C677.843750,339.536560 677.555176,341.021179 677.341553,343.311279 
	C676.891052,350.978851 672.461060,355.067719 666.893738,358.736023 
	C663.990540,359.598785 661.492737,360.379578 658.625122,361.084656 
	C657.504395,361.041229 656.753540,361.073608 655.642334,361.009827 
	C651.519043,359.004883 647.756042,357.096100 643.787048,354.916931 
	C634.646118,345.965637 625.711243,337.284729 616.593567,328.426208 
	C616.215149,328.754486 615.575134,329.247986 615.005676,329.812775 
	C600.577515,344.124268 586.103027,358.389648 571.753418,372.779510 
	C562.121460,382.438446 552.668335,392.275665 542.829895,402.177704 
	C510.614014,434.209320 478.790192,466.184235 446.676086,497.864899 
	C442.935486,501.555023 437.589325,503.617706 432.539368,506.412628 
	C424.621857,507.328949 418.934113,503.957886 413.905182,498.924011 
	C396.254944,481.256317 378.592834,463.600494 360.926697,445.948700 
	C359.670898,444.693909 358.346252,443.508026 356.718689,441.974457 
	C317.158875,481.588104 277.897858,520.902588 238.307953,560.546326 
	C231.764740,553.989075 225.458221,547.617737 219.095505,541.303040 
	C204.807236,527.122803 190.491074,512.970764 176.032410,498.512848 
	C173.554596,495.801208 171.230667,493.383911 168.906723,490.966614 
	C170.011292,489.730469 171.058578,488.437042 172.228653,487.266357 
	C228.522552,430.944824 284.825928,374.632751 341.131256,318.322601 
	C351.325073,308.127930 362.396271,308.115356 372.627472,318.284149 
	C377.826202,323.451172 383.004547,328.638763 388.643799,334.287842 
	C402.542938,348.269104 415.990326,361.779572 429.555237,375.408081 
	C431.026611,374.078583 432.040497,373.238922 432.968323,372.313049 
	C467.583466,337.769287 502.192261,303.219116 536.790100,268.657990 
	C537.604065,267.844940 538.283020,266.896790 539.334717,265.887695 
	C542.129822,263.365997 544.615173,260.968292 548.086853,257.619080 
	C537.169800,247.078552 526.657532,236.928879 516.134094,226.391907 
	C512.734436,219.682144 514.316406,213.344498 516.064819,207.006332 
	C516.064819,207.006332 516.004333,206.989746 516.315308,206.980804 
	C516.892700,206.645096 517.159119,206.318329 517.425537,205.991547 
z"/>
<path fill="#70A9AC" opacity="1.000000" stroke="none" 
	d="
M515.759521,207.146530 
	C514.316406,213.344498 512.734436,219.682144 515.821411,226.639114 
	C512.333862,233.327560 513.693848,239.216995 517.726440,243.877502 
	C524.416687,251.609634 531.884644,258.668915 539.025024,266.011658 
	C538.283020,266.896790 537.604065,267.844940 536.790100,268.657990 
	C502.192261,303.219116 467.583466,337.769287 432.968323,372.313049 
	C432.040497,373.238922 431.026611,374.078583 429.555237,375.408081 
	C415.990326,361.779572 402.542938,348.269104 388.916138,334.472595 
	C392.533020,330.246643 396.274902,326.252563 400.134583,322.375732 
	C420.982056,301.435760 441.858765,280.524841 462.885742,259.311096 
	C475.433167,246.778610 487.817657,234.536392 500.208405,222.300522 
	C505.283447,217.288910 510.371948,212.290909 515.759521,207.146530 
z"/>
<path fill="#68A6A9" opacity="1.000000" stroke="none" 
	d="
M168.585541,490.968811 
	C171.230667,493.383911 173.554596,495.801208 175.757248,498.732483 
	C173.335861,501.747650 171.035782,504.248779 168.034882,507.511993 
	C170.278732,509.327637 172.097809,510.543793 173.611847,512.063843 
	C190.126923,528.644287 206.594254,545.272217 222.730057,561.984558 
	C221.920502,562.185181 221.455475,562.288452 220.990448,562.391724 
	C203.130966,562.391724 185.271484,562.391724 166.705429,562.391724 
	C166.705429,543.989990 166.705429,526.458435 166.612915,508.466614 
	C166.633408,502.630066 166.746429,497.253784 166.919312,491.406067 
	C167.407562,490.946808 167.835953,490.958923 168.585541,490.968811 
z"/>
<path fill="#70A9AC" opacity="1.000000" stroke="none" 
	d="
M619.107056,408.697449 
	C617.469543,410.317505 615.930908,411.581848 614.527344,412.981689 
	C586.878357,440.559418 559.245056,468.152863 531.317383,495.521790 
	C532.004150,492.826263 532.982056,490.352020 534.499451,486.512909 
	C526.328857,489.751526 523.508545,483.949951 519.577393,480.260345 
	C517.419495,478.235046 515.225525,476.229919 513.245300,474.037354 
	C509.101746,469.449646 505.089050,464.743744 501.177124,459.786743 
	C504.914032,456.001404 508.496460,452.515747 512.439087,449.031006 
	C514.199524,449.354614 515.599731,449.677307 517.046387,450.341766 
	C519.728516,453.122345 522.364258,455.561188 525.046387,458.341797 
	C527.728516,461.122375 530.364258,463.561188 533.046509,466.342468 
	C535.474243,469.630646 537.794373,472.628815 540.261963,475.500305 
	C541.524292,476.969330 543.050598,478.211487 544.457642,479.556152 
	C545.746582,477.860291 547.035583,476.164429 547.530579,475.513153 
	C543.653137,472.456116 540.726807,469.963776 537.593262,467.766998 
	C536.289795,466.853241 534.544434,466.569977 532.991089,465.632080 
	C532.001587,460.996521 529.218018,458.710114 524.991089,457.632080 
	C524.001587,452.996521 521.218018,450.710114 516.991943,449.636292 
	C516.666321,447.873260 516.348877,446.473999 516.183594,444.777649 
	C528.258057,432.375671 540.180359,420.270782 552.390991,407.994019 
	C574.052490,386.509735 595.425720,365.197327 616.954407,343.729889 
	C625.107300,351.837036 632.682678,359.523041 640.444336,367.016235 
	C643.767395,370.224426 647.477844,373.031372 651.012329,376.020599 
	C640.431152,386.815369 629.849915,397.610138 619.107056,408.697449 
z"/>
<path fill="#4D6F70" opacity="1.000000" stroke="none" 
	d="
M651.259399,375.989807 
	C647.477844,373.031372 643.767395,370.224426 640.444336,367.016235 
	C632.682678,359.523041 625.107300,351.837036 616.954407,343.729889 
	C595.425720,365.197327 574.052490,386.509735 552.222778,407.680420 
	C548.889282,405.703491 546.012268,403.868317 543.135254,402.033142 
	C552.668335,392.275665 562.121460,382.438446 571.753418,372.779510 
	C586.103027,358.389648 600.577515,344.124268 615.005676,329.812775 
	C615.575134,329.247986 616.215149,328.754486 616.593567,328.426208 
	C625.711243,337.284729 634.646118,345.965637 643.788757,355.287048 
	C644.103882,360.934540 648.429504,362.038605 651.753967,363.729584 
	C652.525696,364.122131 654.553040,362.046112 656.002625,361.105957 
	C656.753540,361.073608 657.504395,361.041229 658.612915,361.461975 
	C658.325684,364.632660 657.680786,367.350311 656.879517,370.352173 
	C655.150085,372.404633 653.577026,374.172852 652.003967,375.941101 
	C652.003967,375.941101 651.506409,375.959045 651.259399,375.989807 
z"/>
<path fill="#639497" opacity="1.000000" stroke="none" 
	d="
M652.297302,376.223022 
	C653.577026,374.172852 655.150085,372.404633 657.169434,370.186371 
	C660.843506,366.042236 664.071350,362.348145 667.299194,358.654053 
	C672.461060,355.067719 676.891052,350.978851 677.342773,343.742401 
	C677.516968,348.798157 678.287720,354.311218 677.613281,359.641449 
	C676.049377,372.002106 665.850220,378.607300 652.297302,376.223022 
z"/>
<path fill="#70A9AC" opacity="1.000000" stroke="none" 
	d="
M517.135498,206.095917 
	C517.159119,206.318329 516.892700,206.645096 516.312561,207.012054 
	C516.281006,206.768234 516.563232,206.484268 517.135498,206.095917 
z"/>
<path fill="#F3F3F3" opacity="1.000000" stroke="none" 
	d="
M221.060883,562.703857 
	C221.455475,562.288452 221.920502,562.185181 223.185028,562.073242 
	C233.657562,562.036926 243.330582,562.009216 253.467850,562.050049 
	C312.980621,562.121277 372.029144,562.132080 431.077667,562.119507 
	C442.718689,562.117004 454.359741,562.024719 466.000763,561.973816 
	C478.498505,562.022949 490.996216,562.112915 503.493958,562.114380 
	C571.492920,562.122437 639.491943,562.107971 707.490906,562.103271 
	C714.051453,562.102844 714.061096,562.109192 714.056885,568.543030 
	C714.045837,585.376038 714.025513,602.208984 713.739868,619.543579 
	C713.298279,620.091675 713.125671,620.138184 712.953125,620.184692 
	C711.958862,620.126221 710.964539,620.016663 709.970276,620.016602 
	C622.288147,620.013123 534.605957,620.018127 446.459778,620.094666 
	C428.042847,620.113281 410.089996,620.027344 392.137115,620.012939 
	C353.065826,619.981628 313.994507,619.986755 274.459106,619.904602 
	C273.555573,618.293030 273.588104,616.284424 272.600006,615.290894 
	C266.237396,608.893311 259.598907,602.771179 253.158691,596.449036 
	C249.292618,592.653809 245.629410,588.652344 241.860489,584.757690 
	C238.317276,581.096252 234.726044,577.480835 231.209366,573.794250 
	C227.814529,570.235291 224.487900,566.611389 221.060883,562.703857 
z"/>
<path fill="#6AA5A8" opacity="1.000000" stroke="none" 
	d="
M466.150269,561.678833 
	C454.359741,562.024719 442.718689,562.117004 431.077667,562.119507 
	C372.029144,562.132080 312.980621,562.121277 253.644730,561.771851 
	C287.865631,527.024353 322.373901,492.623566 357.930878,457.177399 
	C359.169342,458.947144 360.024963,460.638428 361.296387,461.915863 
	C379.156219,479.860718 397.210907,497.614197 414.902740,515.722412 
	C421.348877,522.320312 432.345764,525.366333 441.288513,518.752808 
	C456.378174,503.962006 471.153870,489.289581 485.967926,474.655975 
	C490.935883,469.748566 496.001587,464.940094 501.022644,460.086395 
	C505.089050,464.743744 509.101746,469.449646 513.245300,474.037354 
	C515.225525,476.229919 517.419495,478.235046 519.577393,480.260345 
	C523.508545,483.949951 526.328857,489.751526 534.499451,486.512909 
	C532.982056,490.352020 532.004150,492.826263 531.023804,495.680359 
	C522.023987,505.196411 513.050964,514.356750 504.023132,523.462830 
	C491.470215,536.124512 478.876190,548.745544 466.150269,561.678833 
z"/>
<path fill="#4F787A" opacity="1.000000" stroke="none" 
	d="
M712.783203,620.456787 
	C713.125671,620.138184 713.298279,620.091675 713.736816,620.010742 
	C714.002747,625.053772 714.002747,630.131104 714.002747,635.868347 
	C708.985962,635.868347 704.434143,635.868347 699.417969,635.784912 
	C703.506897,630.710632 708.060059,625.719727 712.783203,620.456787 
z"/>
<path fill="#456869" opacity="1.000000" stroke="none" 
	d="
M440.989502,518.886292 
	C432.345764,525.366333 421.348877,522.320312 414.902740,515.722412 
	C397.210907,497.614197 379.156219,479.860718 361.296387,461.915863 
	C360.024963,460.638428 359.169342,458.947144 357.930878,457.177399 
	C322.373901,492.623566 287.865631,527.024353 253.180466,561.703308 
	C243.330582,562.009216 233.657562,562.036926 223.529572,561.975952 
	C206.594254,545.272217 190.126923,528.644287 173.611847,512.063843 
	C172.097809,510.543793 170.278732,509.327637 168.034882,507.511993 
	C171.035782,504.248779 173.335861,501.747650 175.911102,499.026855 
	C190.491074,512.970764 204.807236,527.122803 219.095505,541.303040 
	C225.458221,547.617737 231.764740,553.989075 238.307953,560.546326 
	C277.897858,520.902588 317.158875,481.588104 356.718689,441.974457 
	C358.346252,443.508026 359.670898,444.693909 360.926697,445.948700 
	C378.592834,463.600494 396.254944,481.256317 413.905182,498.924011 
	C418.934113,503.957886 424.621857,507.328949 432.556702,506.754456 
	C434.051331,508.897827 434.975861,510.748962 436.135559,512.438660 
	C437.656494,514.654541 439.362885,516.743042 440.989502,518.886292 
z"/>
<path fill="#476A6B" opacity="1.000000" stroke="none" 
	d="
M441.288483,518.752808 
	C439.362885,516.743042 437.656494,514.654541 436.135559,512.438660 
	C434.975861,510.748962 434.051331,508.897827 433.004822,506.776733 
	C437.589325,503.617706 442.935486,501.555023 446.676086,497.864899 
	C478.790192,466.184235 510.614014,434.209320 542.829895,402.177734 
	C546.012268,403.868317 548.889282,405.703491 551.934448,407.852295 
	C540.180359,420.270782 528.258057,432.375671 515.895508,444.907013 
	C514.329834,446.565643 513.204346,447.797852 512.078857,449.030060 
	C508.496460,452.515747 504.914032,456.001404 501.177124,459.786743 
	C496.001587,464.940094 490.935883,469.748566 485.967926,474.655975 
	C471.153870,489.289581 456.378174,503.962006 441.288483,518.752808 
z"/>
<path fill="#517273" opacity="1.000000" stroke="none" 
	d="
M539.334717,265.887665 
	C531.884644,258.668915 524.416687,251.609634 517.726440,243.877502 
	C513.693848,239.216995 512.333862,233.327560 515.832642,227.026413 
	C526.657532,236.928879 537.169800,247.078552 548.086853,257.619080 
	C544.615173,260.968292 542.129822,263.365997 539.334717,265.887665 
z"/>
<path fill="#517273" opacity="1.000000" stroke="none" 
	d="
M655.642334,361.009827 
	C654.553040,362.046112 652.525696,364.122131 651.753967,363.729584 
	C648.429504,362.038605 644.103882,360.934540 643.994812,355.557434 
	C647.756042,357.096100 651.519043,359.004883 655.642334,361.009827 
z"/>
<path fill="#517273" opacity="1.000000" stroke="none" 
	d="
M666.893738,358.736023 
	C664.071350,362.348145 660.843506,366.042236 657.325806,369.902161 
	C657.680786,367.350311 658.325684,364.632660 658.982788,361.537720 
	C661.492737,360.379578 663.990540,359.598785 666.893738,358.736023 
z"/>
<path fill="#6AA5A8" opacity="1.000000" stroke="none" 
	d="
M533.046509,466.342468 
	C534.544434,466.569977 536.289795,466.853241 537.593262,467.766998 
	C540.726807,469.963776 543.653137,472.456116 547.530579,475.513153 
	C547.035583,476.164429 545.746582,477.860291 544.457642,479.556152 
	C543.050598,478.211487 541.524292,476.969330 540.261963,475.500305 
	C537.794373,472.628815 535.474243,469.630646 533.046509,466.342468 
z"/>
<path fill="#6AA5A8" opacity="1.000000" stroke="none" 
	d="
M532.991089,465.632080 
	C530.364258,463.561188 527.728516,461.122375 525.046387,458.341797 
	C529.218018,458.710114 532.001587,460.996521 532.991089,465.632080 
z"/>
<path fill="#6AA5A8" opacity="1.000000" stroke="none" 
	d="
M524.991089,457.632080 
	C522.364258,455.561188 519.728516,453.122345 517.046387,450.341766 
	C521.218018,450.710114 524.001587,452.996521 524.991089,457.632080 
z"/>
<path fill="#6AA5A8" opacity="1.000000" stroke="none" 
	d="
M512.439087,449.030975 
	C513.204346,447.797852 514.329834,446.565643 515.743408,445.204071 
	C516.348877,446.473999 516.666321,447.873260 516.991943,449.636292 
	C515.599731,449.677307 514.199524,449.354614 512.439087,449.030975 
z"/>
</svg>